# xmcd
#
# Track frame offsets:
#	150
#	17628
#	32853
#	50069
#	67479
#	87246
#	103770
#	126058
#	143105
#	167611
#	185546
#	207454
#
# Disc length: 3023 seconds
#
# Revision: 0
# Processed by: cddbd v1.5.1PL0 Copyright (c) Steve Scherf et al.
# Submitted via: EasyCDDAExtractor 8.0.2.1
#
DISCID=b30bcd0c
DTITLE=Shanice
DYEAR=1900
DGENRE=R&B
TTITLE0=You Need A Man
TTITLE1=When I Close My Eyes
TTITLE2=Yesterday
TTITLE3=Wanna Hear You Say
TTITLE4=Fly Away
TTITLE5=Don't Fight It
TTITLE6=Ain't Got No Remedy
TTITLE7=Doin' My Thang
TTITLE8=Fall For You
TTITLE9=You Can Bounce
TTITLE10=Somebody Else
TTITLE11=A Reason
EXTD=
EXTT0=
EXTT1=
EXTT2=
EXTT3=
EXTT4=
EXTT5=
EXTT6=
EXTT7=
EXTT8=
EXTT9=
EXTT10=
EXTT11=
PLAYORDER=
